<?xml version="1.0" encoding="UTF-8"?>
<svg width="800" height="600" viewBox="0 0 800 600" fill="none" xmlns="http://www.w3.org/2000/svg">
  <!-- Background Elements -->
  <circle cx="400" cy="300" r="250" fill="#F3F4F6"/>
  
  <!-- Code Window -->
  <rect x="150" y="100" width="500" height="400" rx="8" fill="#FFFFFF" stroke="#E5E7EB" stroke-width="2"/>
  <rect x="150" y="100" width="500" height="40" rx="8" fill="#F9FAFB" stroke="#E5E7EB" stroke-width="2"/>
  <circle cx="180" cy="120" r="6" fill="#EF4444"/>
  <circle cx="205" cy="120" r="6" fill="#F59E0B"/>
  <circle cx="230" cy="120" r="6" fill="#10B981"/>
  
  <!-- Code Lines -->
  <rect x="180" y="160" width="200" height="4" rx="2" fill="#E5E7EB"/>
  <rect x="180" y="180" width="300" height="4" rx="2" fill="#E5E7EB"/>
  <rect x="180" y="200" width="250" height="4" rx="2" fill="#E5E7EB"/>
  <rect x="180" y="220" width="280" height="4" rx="2" fill="#E5E7EB"/>
  <rect x="180" y="240" width="220" height="4" rx="2" fill="#E5E7EB"/>
  <rect x="180" y="260" width="320" height="4" rx="2" fill="#E5E7EB"/>
  
  <!-- AI Review Elements -->
  <g transform="translate(600, 200)">
    <circle cx="0" cy="0" r="40" fill="#3B82F6" opacity="0.1"/>
    <path d="M-20 0C-20 -11.046 -11.046 -20 0 -20C11.046 -20 20 -11.046 20 0C20 11.046 11.046 20 0 20C-11.046 20 -20 11.046 -20 0Z" stroke="#3B82F6" stroke-width="2"/>
    <path d="M-10 0C-10 -5.523 -5.523 -10 0 -10C5.523 -10 10 -5.523 10 0C10 5.523 5.523 10 0 10C-5.523 10 -10 5.523 -10 0Z" stroke="#3B82F6" stroke-width="2"/>
    <circle cx="0" cy="0" r="4" fill="#3B82F6"/>
  </g>
  
  <!-- Review Comments -->
  <g transform="translate(400, 350)">
    <rect x="-100" y="-30" width="200" height="60" rx="8" fill="#F3F4F6" stroke="#E5E7EB" stroke-width="2"/>
    <path d="M0 30L-10 40L10 40L0 30Z" fill="#F3F4F6" stroke="#E5E7EB" stroke-width="2"/>
    <text x="0" y="5" text-anchor="middle" fill="#374151" font-size="14">Code review in progress...</text>
  </g>
  
  <!-- Connection Lines -->
  <path d="M400 300L600 200" stroke="#3B82F6" stroke-width="2" stroke-dasharray="4 4"/>
  <path d="M400 300L400 320" stroke="#3B82F6" stroke-width="2" stroke-dasharray="4 4"/>
  
  <!-- Floating Elements -->
  <circle cx="100" cy="200" r="20" fill="#3B82F6" opacity="0.1"/>
  <circle cx="700" cy="400" r="15" fill="#3B82F6" opacity="0.1"/>
  <circle cx="150" cy="450" r="25" fill="#3B82F6" opacity="0.1"/>
</svg> 