<?xml version="1.0" encoding="UTF-8"?>
<svg width="48" height="48" viewBox="0 0 48 48" fill="none" xmlns="http://www.w3.org/2000/svg">
  <path d="M24 0C10.745 0 0 10.745 0 24C0 34.617 6.867 43.617 16.4 46.8C17.6 47 18 46.4 18 45.8V42.2C11.2 43.6 9.8 38.4 9.8 38.4C8.733 35.733 7.2 35 7.2 35C5.067 33.733 7.333 33.733 7.333 33.733C9.733 33.867 11 36.2 11 36.2C13.133 40.067 16.867 39 18.2 38.4C18.4 36.8 19 35.733 19.6 35.2C14.267 34.6 8.667 32.467 8.667 23.2C8.667 20.533 9.733 18.267 11.2 16.6C11 16.067 10.133 13.533 11.467 10.2C11.467 10.2 13.467 9.6 18 12.8C20 12.267 22.2 12 24.4 12C26.6 12 28.8 12.267 30.8 12.8C35.333 9.6 37.333 10.2 37.333 10.2C38.667 13.533 37.8 16.067 37.6 16.6C39.067 18.267 40.133 20.533 40.133 23.2C40.133 32.467 34.533 34.6 29.2 35.2C30 36 30.6 37.467 30.6 39.6V45.8C30.6 46.4 31 47 32.2 46.8C41.733 43.617 48.6 34.617 48.6 24C48.6 10.745 37.855 0 24 0Z" fill="currentColor"/>
</svg> 